<?xml version="1.0" standalone="no"?>
<!DOCTYPE svg PUBLIC "-//W3C//DTD SVG 20010904//EN"
 "http://www.w3.org/TR/2001/REC-SVG-20010904/DTD/svg10.dtd">
<svg version="1.0" xmlns="http://www.w3.org/2000/svg"
 width="512.000000pt" height="512.000000pt" viewBox="0 0 512.000000 512.000000"
 preserveAspectRatio="xMidYMid meet">
<metadata>
Created by potrace 1.14, written by Peter Selinger 2001-2017
</metadata>
<g transform="translate(0.000000,512.000000) scale(0.100000,-0.100000)"
fill="#000000" stroke="none">
<path d="M659 5094 c-300 -54 -542 -281 -622 -584 l-22 -85 0 -1870 c0 -1749
1 -1874 18 -1938 64 -250 243 -458 477 -553 140 -57 43 -54 2051 -54 1653 0
1858 2 1927 16 249 51 465 230 564 466 61 144 58 34 58 2066 0 2089 6 1928
-75 2097 -49 104 -72 137 -158 223 -114 116 -279 199 -441 221 -53 8 -642 11
-1889 10 -1497 -1 -1825 -3 -1888 -15z m3017 -2529 c376 -847 683 -1543 684
-1548 0 -4 -205 -6 -456 -5 l-456 3 -176 440 c-96 242 -176 441 -178 443 -1 2
-82 -12 -181 -32 -274 -55 -507 -95 -752 -130 l-223 -31 -138 -345 -138 -345
-447 -3 c-423 -2 -447 -1 -442 15 2 10 305 698 672 1528 367 831 671 1520 676
1533 l9 22 432 -2 432 -3 682 -1540z"/>
<path d="M2420 2905 c-73 -184 -132 -336 -129 -338 4 -4 491 82 496 87 2 2
-226 578 -231 583 -1 2 -63 -148 -136 -332z"/>
</g>
</svg>
