<?xml version="1.0" encoding="UTF-8"?><svg id="Layer_1" xmlns="http://www.w3.org/2000/svg" width="220" height="75" viewBox="0 0 220 75"><g><path d="m18.1831,19.2999h12.8777l3.0975-16.0369h10.0839l-8.1401,41.9133h-10.0833l3.4018-17.4937h-12.8777l-3.4018,17.4937H3.0573L11.1974,3.263h10.0833l-3.0975,16.0369Z" fill="#fff"/><path d="m58.5138,3.263l2.9154,25.3307,12.8172-25.3307h11.3592l-22.4758,41.9133h-9.0506L47.8831,3.263h10.6308Z" fill="#fff"/><path d="m73.8188,45.1763L96.5371,3.263h9.7191l6.4388,41.9133h-10.3876l-.85-7.1678h-12.9388l-3.5839,7.1678h-11.116Zm18.9523-15.5505h7.7142l-1.4574-12.3913-6.2567,12.3913Z" fill="#fff"/><path d="m140.9999,16.2012c.121-2.6728-1.2154-5.1629-4.7993-5.1629-4.1913,0-7.0462,3.037-8.3827,9.9012l-1.2753,6.5604c-1.2759,6.5604.2432,9.9012,4.495,9.9012,3.5839,0,5.5882-1.8222,6.8641-5.1629h9.5975c-2.7333,9.2938-8.3827,13.5456-18.0412,13.5456-9.0506,0-15.3073-6.3172-12.9993-18.2838l1.2759-6.5604c2.4907-12.8777,9.8407-18.2838,19.8634-18.2838,8.5648,0,13.2419,5.3456,12.9993,13.5456h-9.5975Z" fill="#fff"/><path d="m172.7053,45.1763l-3.8876-15.8542h-5.2234l-3.0981,15.8542h-10.0839l8.1401-41.9133h15.7931c8.4438,0,13.6067,4.495,13.6067,11.5419,0,6.2567-3.2191,10.5691-9.1722,12.8777l4.9808,17.4937h-11.0555Zm-2.9759-24.2369c4.6771,0,7.9574-.6679,7.9574-5.5271,0-3.0987-2.5512-3.7666-6.1962-3.7666h-4.495l-1.7617,9.2938h4.4956Z" fill="#fff"/></g><g><path d="m19.2691,18.5839h12.8777l3.0975-16.0369h10.0839l-8.1401,41.9133h-10.0833l3.4018-17.4937h-12.8777l-3.4018,17.4937H4.1433L12.2834,2.547h10.0833l-3.0975,16.0369Z"/><path d="m59.5998,2.547l2.9154,25.3307,12.8172-25.3307h11.3592l-22.4758,41.9133h-9.0506L48.9691,2.547h10.6308Z"/><path d="m74.9048,44.4603L97.6231,2.547h9.7191l6.4388,41.9133h-10.3876l-.85-7.1678h-12.9388l-3.5839,7.1678h-11.116Zm18.9523-15.5505h7.7142l-1.4574-12.3913-6.2567,12.3913Z"/><path d="m142.0859,15.4852c.121-2.6728-1.2154-5.1629-4.7993-5.1629-4.1913,0-7.0462,3.037-8.3827,9.9012l-1.2753,6.5604c-1.2759,6.5604.2432,9.9012,4.495,9.9012,3.5839,0,5.5882-1.8222,6.8641-5.1629h9.5975c-2.7333,9.2938-8.3827,13.5456-18.0412,13.5456-9.0506,0-15.3073-6.3172-12.9993-18.2838l1.2759-6.5604c2.4907-12.8777,9.8407-18.2838,19.8634-18.2838,8.5648,0,13.2419,5.3456,12.9993,13.5456h-9.5975Z"/><path d="m173.7913,44.4603l-3.8876-15.8542h-5.2234l-3.0981,15.8542h-10.0839l8.1401-41.9133h15.7931c8.4438,0,13.6067,4.495,13.6067,11.5419,0,6.2567-3.2191,10.5691-9.1722,12.8777l4.9808,17.4937h-11.0555Zm-2.9759-24.2369c4.6771,0,7.9574-.6679,7.9574-5.5271,0-3.0987-2.5512-3.7666-6.1962-3.7666h-4.495l-1.7617,9.2938h4.4956Z"/></g><g><path d="m60.1704,70.9562l12.7211-23.4705h5.4423l3.6059,23.4705h-5.8166l-.4763-4.0146h-7.245l-2.0073,4.0146h-6.2241Zm10.6124-8.7077h4.3195l-.8162-6.9389-3.5033,6.9389Z" fill="#fff"/><path d="m106.7021,47.4857l-4.5579,23.4705h-4.4903l-6.1565-13.2324-2.5512,13.2324h-5.3059l4.5579-23.4705h4.4215l6.1909,13.4021,2.585-13.4021h5.3065Z" fill="#fff"/><path d="m121.7359,53.9821c-.6121-1.5636-1.6662-2.1425-3.7755-2.1425-2.1425,0-3.129,1.0547-3.129,2.381,0,1.1567,1.1223,1.9385,3.6391,2.6871,4.0478,1.2243,5.8166,3.1972,5.8166,6.3955,0,4.7952-3.4356,7.9924-9.7624,7.9924-4.2856,0-6.8369-1.2243-8.4693-3.8769l4.6261-2.9255c.8844,1.4628,2.1769,2.1093,4.2856,2.1093,2.483,0,3.4694-1.1223,3.4694-2.4154,0-1.1223-.9526-1.8032-3.8437-2.7891-3.4012-1.1567-5.5443-3.1972-5.5443-6.4632,0-4.1498,2.7215-7.7895,9.7624-7.7895,3.7417,0,6.3605,1.3951,7.551,3.9802l-4.6261,2.8567Z" fill="#fff"/><path d="m134.5252,70.9562h-5.3059l-.6804-23.4705h5.9863l-.1696,14.0142,6.8707-14.0142h4.9322l1.6324,14.1162,5.1707-14.1162h6.2585l-9.7962,23.4705h-5.3403l-1.8026-14.8992-7.7557,14.8992Z" fill="#fff"/><path d="m176.2612,47.4857l-.9188,4.6943h-9.184l-.8162,4.2862h8.1638l-.9188,4.6931h-8.1632l-.9864,5.1024h9.184l-.9188,4.6943h-14.8298l4.5579-23.4705h14.8304Z" fill="#fff"/><path d="m187.0776,70.9562l-2.1769-8.8785h-2.9255l-1.7344,8.8785h-5.6464l4.5579-23.4705h8.8436c4.7281,0,7.6193,2.5174,7.6193,6.4632,0,3.5033-1.8026,5.9186-5.1362,7.2106l2.7891,9.7968h-6.1903Zm-1.6668-13.5717c2.6188,0,4.4559-.3749,4.4559-3.0952,0-1.7356-1.4283-2.1093-3.4694-2.1093h-2.5174l-.9864,5.2045h2.5174Z" fill="#fff"/><path d="m211.3293,53.9821c-.6121-1.5636-1.6662-2.1425-3.7755-2.1425-2.1425,0-3.129,1.0547-3.129,2.381,0,1.1567,1.1223,1.9385,3.6391,2.6871,4.0478,1.2243,5.8166,3.1972,5.8166,6.3955,0,4.7952-3.4356,7.9924-9.7624,7.9924-4.2856,0-6.8369-1.2243-8.4693-3.8769l4.6261-2.9255c.8844,1.4628,2.1769,2.1093,4.2856,2.1093,2.483,0,3.4694-1.1223,3.4694-2.4154,0-1.1223-.9526-1.8032-3.8437-2.7891-3.4012-1.1567-5.5443-3.1972-5.5443-6.4632,0-4.1498,2.7215-7.7895,9.7624-7.7895,3.7417,0,6.3605,1.3951,7.551,3.9802l-4.6261,2.8567Z" fill="#fff"/></g><g><path d="m61.0989,70.3991l12.7211-23.4705h5.4423l3.6059,23.4705h-5.8166l-.4763-4.0146h-7.245l-2.0073,4.0146h-6.2241Zm10.6124-8.7077h4.3195l-.8162-6.9389-3.5033,6.9389Z" fill="#37b34a"/><path d="m107.6306,46.9286l-4.5579,23.4705h-4.4903l-6.1565-13.2324-2.5512,13.2324h-5.3059l4.5579-23.4705h4.4215l6.1909,13.4021,2.585-13.4021h5.3065Z" fill="#37b34a"/><path d="m122.6645,53.425c-.6121-1.5636-1.6662-2.1425-3.7755-2.1425-2.1425,0-3.129,1.0547-3.129,2.381,0,1.1567,1.1223,1.9385,3.6391,2.6871,4.0478,1.2243,5.8166,3.1972,5.8166,6.3955,0,4.7952-3.4356,7.9924-9.7624,7.9924-4.2856,0-6.8369-1.2243-8.4693-3.8769l4.6261-2.9255c.8844,1.4628,2.1769,2.1093,4.2856,2.1093,2.483,0,3.4694-1.1223,3.4694-2.4154,0-1.1223-.9526-1.8032-3.8437-2.7891-3.4012-1.1567-5.5443-3.1972-5.5443-6.4632,0-4.1498,2.7215-7.7895,9.7624-7.7895,3.7417,0,6.3605,1.3951,7.551,3.9802l-4.6261,2.8567Z" fill="#37b34a"/><path d="m135.4538,70.3991h-5.3059l-.6804-23.4705h5.9863l-.1696,14.0142,6.8707-14.0142h4.9322l1.6324,14.1162,5.1707-14.1162h6.2585l-9.7962,23.4705h-5.3403l-1.8026-14.8992-7.7557,14.8992Z" fill="#37b34a"/><path d="m177.1897,46.9286l-.9188,4.6943h-9.184l-.8162,4.2862h8.1638l-.9188,4.6931h-8.1632l-.9864,5.1024h9.184l-.9188,4.6943h-14.8298l4.5579-23.4705h14.8304Z" fill="#37b34a"/><path d="m188.0061,70.3991l-2.1769-8.8785h-2.9255l-1.7344,8.8785h-5.6464l4.5579-23.4705h8.8436c4.7281,0,7.6193,2.5174,7.6193,6.4632,0,3.5033-1.8026,5.9186-5.1362,7.2106l2.7891,9.7968h-6.1903Zm-1.6668-13.5717c2.6188,0,4.4559-.3749,4.4559-3.0952,0-1.7356-1.4283-2.1093-3.4694-2.1093h-2.5174l-.9864,5.2045h2.5174Z" fill="#37b34a"/><path d="m212.2578,53.425c-.6121-1.5636-1.6662-2.1425-3.7755-2.1425-2.1425,0-3.129,1.0547-3.129,2.381,0,1.1567,1.1223,1.9385,3.6391,2.6871,4.0478,1.2243,5.8166,3.1972,5.8166,6.3955,0,4.7952-3.4356,7.9924-9.7624,7.9924-4.2856,0-6.8369-1.2243-8.4693-3.8769l4.6261-2.9255c.8844,1.4628,2.1769,2.1093,4.2856,2.1093,2.483,0,3.4694-1.1223,3.4694-2.4154,0-1.1223-.9526-1.8032-3.8437-2.7891-3.4012-1.1567-5.5443-3.1972-5.5443-6.4632,0-4.1498,2.7215-7.7895,9.7624-7.7895,3.7417,0,6.3605,1.3951,7.551,3.9802l-4.6261,2.8567Z" fill="#37b34a"/></g></svg>