<?xml version="1.0" encoding="UTF-8"?><svg id="Layer_2" xmlns="http://www.w3.org/2000/svg" width="212.7932" height="69.0207" xmlns:xlink="http://www.w3.org/1999/xlink" viewBox="0 0 212.7932 69.0207"><defs><filter id="drop-shadow-1" filterUnits="userSpaceOnUse"><feOffset dx="-4.3522" dy="1.7409"/><feGaussianBlur result="blur" stdDeviation="1.7409"/><feFlood flood-color="#231f20" flood-opacity=".55"/><feComposite in2="blur" operator="in"/><feComposite in="SourceGraphic"/></filter><filter id="drop-shadow-2" filterUnits="userSpaceOnUse"><feOffset dx="-4.3522" dy="1.7409"/><feGaussianBlur result="blur-2" stdDeviation="1.7409"/><feFlood flood-color="#231f20" flood-opacity=".55"/><feComposite in2="blur-2" operator="in"/><feComposite in="SourceGraphic"/></filter></defs><g id="Layer_1-2"><g><g><g><path d="m15.0527,17.2764h12.8155l3.0826-15.9594h10.0351l-8.1007,41.7107h-10.0345l3.3854-17.4092h-12.8155l-3.3854,17.4092H0L8.1007,1.317h10.0345l-3.0826,15.9594Z" fill="#231f20"/><path d="m55.1885,1.317l2.9013,25.2082L70.8451,1.317h11.3043l-22.3671,41.7107h-9.0068L44.6091,1.317h10.5794Z" fill="#231f20"/><path d="m70.4195,43.0278L93.028,1.317h9.6721l6.4077,41.7107h-10.3374l-.8459-7.1332h-12.8763l-3.5666,7.1332h-11.0623Zm18.8607-15.4754h7.6769l-1.4504-12.3314-6.2265,12.3314Z" fill="#231f20"/><path d="m137.2759,14.1927c.1204-2.6599-1.2095-5.138-4.7761-5.138-4.1711,0-7.0122,3.0223-8.3421,9.8533l-1.2691,6.5287c-1.2697,6.5287.242,9.8533,4.4733,9.8533,3.5666,0,5.5612-1.8134,6.831-5.138h9.5511c-2.7201,9.2488-8.3421,13.4801-17.954,13.4801-9.0068,0-15.2333-6.2867-12.9365-18.1955l1.2697-6.5287c2.4787-12.8155,9.7931-18.1955,19.7674-18.1955,8.5234,0,13.1779,5.3198,12.9365,13.4801h-9.5511Z" fill="#231f20"/><path d="m168.8281,43.0278l-3.8688-15.7776h-5.1982l-3.0831,15.7776h-10.0351L154.7435,1.317h15.7168c8.4029,0,13.5409,4.4733,13.5409,11.4861,0,6.2265-3.2036,10.518-9.1278,12.8155l4.9568,17.4092h-11.002Zm-2.9615-24.1197c4.6545,0,7.9189-.6647,7.9189-5.5004,0-3.0837-2.5389-3.7484-6.1663-3.7484h-4.4733l-1.7532,9.2488h4.4739Z" fill="#231f20"/></g><g filter="url(#drop-shadow-1)"><path d="m16.1334,16.5639h12.8155l3.0826-15.9594h10.0351l-8.1007,41.7107h-10.0345l3.3854-17.4092h-12.8155l-3.3854,17.4092H1.0808L9.1815.6045h10.0345l-3.0826,15.9594Z" fill="#1b75bb"/><path d="m56.2692.6045l2.9013,25.2082L71.9258.6045h11.3043l-22.3671,41.7107h-9.0068L45.6899.6045h10.5794Z" fill="#1b75bb"/><path d="m71.5002,42.3152L94.1088.6045h9.6721l6.4077,41.7107h-10.3374l-.8459-7.1332h-12.8763l-3.5666,7.1332h-11.0623Zm18.8607-15.4754h7.6769l-1.4504-12.3314-6.2265,12.3314Z" fill="#1b75bb"/><path d="m138.3566,13.4801c.1204-2.6599-1.2095-5.138-4.7761-5.138-4.1711,0-7.0122,3.0223-8.3421,9.8533l-1.2691,6.5287c-1.2697,6.5287.242,9.8533,4.4733,9.8533,3.5666,0,5.5612-1.8134,6.831-5.138h9.5511c-2.7201,9.2488-8.3421,13.4801-17.954,13.4801-9.0068,0-15.2333-6.2867-12.9365-18.1955l1.2697-6.5287c2.4787-12.8155,9.7931-18.1955,19.7674-18.1955,8.5234,0,13.1779,5.3198,12.9365,13.4801h-9.5511Z" fill="#1b75bb"/><path d="m169.9088,42.3152l-3.8688-15.7776h-5.1982l-3.0831,15.7776h-10.0351L155.8242.6045h15.7168c8.4029,0,13.5409,4.4733,13.5409,11.4861,0,6.2265-3.2036,10.518-9.1278,12.8155l4.9568,17.4092h-11.002Zm-2.9615-24.1197c4.6545,0,7.9189-.6647,7.9189-5.5004,0-3.0837-2.5389-3.7484-6.1663-3.7484h-4.4733l-1.7532,9.2488h4.4739Z" fill="#1b75bb"/></g></g><g><g><path d="m56.837,68.6831l12.6596-23.3571h5.416l3.5884,23.3571h-5.7885l-.474-3.9952h-7.2099l-1.9976,3.9952h-6.194Zm10.5611-8.6656h4.2986l-.8123-6.9053-3.4863,6.9053Z" fill="#231f20"/><path d="m103.1438,45.326l-4.5359,23.3571h-4.4686l-6.1267-13.1685-2.5389,13.1685h-5.2802l4.5359-23.3571h4.4001l6.161,13.3373,2.5725-13.3373h5.2808Z" fill="#231f20"/><path d="m118.105,51.791c-.6092-1.556-1.6582-2.1322-3.7573-2.1322-2.1322,0-3.1138,1.0496-3.1138,2.3695,0,1.1511,1.1169,1.9291,3.6215,2.6741,4.0282,1.2184,5.7885,3.1817,5.7885,6.3646,0,4.772-3.419,7.9537-9.7152,7.9537-4.2649,0-6.8038-1.2184-8.4283-3.8582l4.6038-2.9114c.8801,1.4557,2.1664,2.0991,4.2649,2.0991,2.471,0,3.4527-1.1169,3.4527-2.4037,0-1.1169-.948-1.7945-3.8252-2.7756-3.3848-1.1511-5.5176-3.1817-5.5176-6.4319,0-4.1298,2.7083-7.7518,9.7152-7.7518,3.7236,0,6.3298,1.3884,7.5145,3.9609l-4.6038,2.8429Z" fill="#231f20"/><path d="m130.8325,68.6831h-5.2802l-.6771-23.3571h5.9573l-.1688,13.9465,6.8375-13.9465h4.9084l1.6245,14.048,5.1457-14.048h6.2283l-9.7488,23.3571h-5.3145l-1.7939-14.8272-7.7182,14.8272Z" fill="#231f20"/><path d="m172.3667,45.326l-.9144,4.6716h-9.1396l-.8123,4.2655h8.1243l-.9144,4.6705h-8.1237l-.9817,5.0778h9.1396l-.9144,4.6716h-14.7581l4.5359-23.3571h14.7587Z" fill="#231f20"/><path d="m183.1309,68.6831l-2.1664-8.8356h-2.9114l-1.726,8.8356h-5.6191l4.5359-23.3571h8.8008c4.7053,0,7.5824,2.5052,7.5824,6.4319,0,3.4863-1.7939,5.89-5.1114,7.1757l2.7756,9.7494h-6.1604Zm-1.6587-13.5061c2.6062,0,4.4343-.3731,4.4343-3.0802,0-1.7272-1.4214-2.0991-3.4527-2.0991h-2.5052l-.9817,5.1793h2.5052Z" fill="#231f20"/><path d="m207.2654,51.791c-.6092-1.556-1.6582-2.1322-3.7573-2.1322-2.1322,0-3.1138,1.0496-3.1138,2.3695,0,1.1511,1.1169,1.9291,3.6215,2.6741,4.0282,1.2184,5.7885,3.1817,5.7885,6.3646,0,4.772-3.419,7.9537-9.7152,7.9537-4.2649,0-6.8038-1.2184-8.4283-3.8582l4.6038-2.9114c.8801,1.4557,2.1664,2.0991,4.2649,2.0991,2.471,0,3.4527-1.1169,3.4527-2.4037,0-1.1169-.948-1.7945-3.8252-2.7756-3.3848-1.1511-5.5176-3.1817-5.5176-6.4319,0-4.1298,2.7083-7.7518,9.7152-7.7518,3.7236,0,6.3298,1.3884,7.5145,3.9609l-4.6038,2.8429Z" fill="#231f20"/></g><g filter="url(#drop-shadow-2)"><path d="m57.761,68.1286l12.6596-23.3571h5.416l3.5884,23.3571h-5.7885l-.474-3.9952h-7.2099l-1.9976,3.9952h-6.194Zm10.5611-8.6656h4.2986l-.8123-6.9053-3.4863,6.9053Z" fill="#37b34a"/><path d="m104.0679,44.7716l-4.5359,23.3571h-4.4686l-6.1267-13.1685-2.5389,13.1685h-5.2802l4.5359-23.3571h4.4001l6.161,13.3373,2.5725-13.3373h5.2808Z" fill="#37b34a"/><path d="m119.0291,51.2366c-.6092-1.556-1.6582-2.1322-3.7573-2.1322-2.1322,0-3.1138,1.0496-3.1138,2.3695,0,1.1511,1.1169,1.9291,3.6215,2.6741,4.0282,1.2184,5.7885,3.1817,5.7885,6.3646,0,4.772-3.419,7.9537-9.7152,7.9537-4.2649,0-6.8038-1.2184-8.4283-3.8582l4.6038-2.9114c.8801,1.4557,2.1664,2.0991,4.2649,2.0991,2.471,0,3.4527-1.1169,3.4527-2.4037,0-1.1169-.948-1.7945-3.8252-2.7756-3.3848-1.1511-5.5176-3.1817-5.5176-6.4319,0-4.1298,2.7083-7.7518,9.7152-7.7518,3.7236,0,6.3298,1.3884,7.5145,3.9609l-4.6038,2.8429Z" fill="#37b34a"/><path d="m131.7565,68.1286h-5.2802l-.6771-23.3571h5.9573l-.1688,13.9465,6.8375-13.9465h4.9084l1.6245,14.048,5.1457-14.048h6.2283l-9.7488,23.3571h-5.3145l-1.7939-14.8272-7.7182,14.8272Z" fill="#37b34a"/><path d="m173.2908,44.7716l-.9144,4.6716h-9.1396l-.8123,4.2655h8.1243l-.9144,4.6705h-8.1237l-.9817,5.0778h9.1396l-.9144,4.6716h-14.7581l4.5359-23.3571h14.7587Z" fill="#37b34a"/><path d="m184.0549,68.1286l-2.1664-8.8356h-2.9114l-1.726,8.8356h-5.6191l4.5359-23.3571h8.8008c4.7053,0,7.5824,2.5052,7.5824,6.4319,0,3.4863-1.7939,5.89-5.1114,7.1757l2.7756,9.7494h-6.1604Zm-1.6587-13.5061c2.6062,0,4.4343-.3731,4.4343-3.0802,0-1.7272-1.4214-2.0991-3.4527-2.0991h-2.5052l-.9817,5.1793h2.5052Z" fill="#37b34a"/><path d="m208.1894,51.2366c-.6092-1.556-1.6582-2.1322-3.7573-2.1322-2.1322,0-3.1138,1.0496-3.1138,2.3695,0,1.1511,1.1169,1.9291,3.6215,2.6741,4.0282,1.2184,5.7885,3.1817,5.7885,6.3646,0,4.772-3.419,7.9537-9.7152,7.9537-4.2649,0-6.8038-1.2184-8.4283-3.8582l4.6038-2.9114c.8801,1.4557,2.1664,2.0991,4.2649,2.0991,2.471,0,3.4527-1.1169,3.4527-2.4037,0-1.1169-.948-1.7945-3.8252-2.7756-3.3848-1.1511-5.5176-3.1817-5.5176-6.4319,0-4.1298,2.7083-7.7518,9.7152-7.7518,3.7236,0,6.3298,1.3884,7.5145,3.9609l-4.6038,2.8429Z" fill="#37b34a"/></g></g></g></g></svg>