<?xml version="1.0" encoding="utf-8"?>
<!-- Generator: Adobe Illustrator 27.6.1, SVG Export Plug-In . SVG Version: 6.00 Build 0)  -->
<svg version="1.1" id="Layer_1" xmlns="http://www.w3.org/2000/svg" xmlns:xlink="http://www.w3.org/1999/xlink" x="0px" y="0px"
	 viewBox="0 0 220 75" style="enable-background:new 0 0 220 75;" xml:space="preserve">
<style type="text/css">
	.st0{fill:#FFFFFF;}
</style>
<g>
	<g>
		<path class="st0" d="M20.5,20.1h12.6l3-15.7h9.9l-8,41.1h-9.9l3.3-17.2H18.9l-3.3,17.2H5.7l8-41.1h9.9L20.5,20.1z"/>
		<path class="st0" d="M60.1,4.4l2.9,24.8L75.5,4.4h11.1l-22,41.1h-8.9L49.6,4.4H60.1z"/>
		<path class="st0" d="M75.1,45.5L97.4,4.4h9.5l6.3,41.1H103l-0.8-7H89.5l-3.5,7H75.1z M93.7,30.2h7.6l-1.4-12.2L93.7,30.2z"/>
		<path class="st0" d="M141,17c0.1-2.6-1.2-5.1-4.7-5.1c-4.1,0-6.9,3-8.2,9.7l-1.3,6.4c-1.3,6.4,0.2,9.7,4.4,9.7
			c3.5,0,5.5-1.8,6.7-5.1h9.4c-2.7,9.1-8.2,13.3-17.7,13.3c-8.9,0-15-6.2-12.7-17.9l1.3-6.4c2.4-12.6,9.7-17.9,19.5-17.9
			c8.4,0,13,5.2,12.7,13.3H141z"/>
	</g>
	<g>
		<path class="st0" d="M61.5,70.9l12.5-23h5.3l3.5,23h-5.7L76.7,67h-7.1l-2,3.9H61.5z M71.9,62.4h4.2l-0.8-6.8L71.9,62.4z"/>
		<path class="st0" d="M107.2,47.9l-4.5,23h-4.4l-6-13l-2.5,13h-5.2l4.5-23h4.3L99.4,61l2.5-13.1H107.2z"/>
		<path class="st0" d="M121.9,54.3c-0.6-1.5-1.6-2.1-3.7-2.1c-2.1,0-3.1,1-3.1,2.3c0,1.1,1.1,1.9,3.6,2.6c4,1.2,5.7,3.1,5.7,6.3
			c0,4.7-3.4,7.8-9.6,7.8c-4.2,0-6.7-1.2-8.3-3.8l4.5-2.9c0.9,1.4,2.1,2.1,4.2,2.1c2.4,0,3.4-1.1,3.4-2.4c0-1.1-0.9-1.8-3.8-2.7
			c-3.3-1.1-5.4-3.1-5.4-6.3c0-4.1,2.7-7.6,9.6-7.6c3.7,0,6.2,1.4,7.4,3.9L121.9,54.3z"/>
		<path class="st0" d="M134.5,70.9h-5.2l-0.7-23h5.9l-0.2,13.7l6.7-13.7h4.8l1.6,13.8l5.1-13.8h6.1l-9.6,23h-5.2l-1.8-14.6
			L134.5,70.9z"/>
		<path class="st0" d="M175.4,47.9l-0.9,4.6h-9l-0.8,4.2h8l-0.9,4.6h-8l-1,5h9l-0.9,4.6h-14.5l4.5-23H175.4z"/>
		<path class="st0" d="M186,70.9l-2.1-8.7H181l-1.7,8.7h-5.5l4.5-23h8.7c4.6,0,7.5,2.5,7.5,6.3c0,3.4-1.8,5.8-5,7.1l2.7,9.6H186z
			 M184.4,57.6c2.6,0,4.4-0.4,4.4-3c0-1.7-1.4-2.1-3.4-2.1h-2.5l-1,5.1H184.4z"/>
		<path class="st0" d="M209.8,54.3c-0.6-1.5-1.6-2.1-3.7-2.1c-2.1,0-3.1,1-3.1,2.3c0,1.1,1.1,1.9,3.6,2.6c4,1.2,5.7,3.1,5.7,6.3
			c0,4.7-3.4,7.8-9.6,7.8c-4.2,0-6.7-1.2-8.3-3.8l4.5-2.9c0.9,1.4,2.1,2.1,4.2,2.1c2.4,0,3.4-1.1,3.4-2.4c0-1.1-0.9-1.8-3.8-2.7
			c-3.3-1.1-5.4-3.1-5.4-6.3c0-4.1,2.7-7.6,9.6-7.6c3.7,0,6.2,1.4,7.4,3.9L209.8,54.3z"/>
	</g>
</g>
</svg>
