<?xml version="1.0" encoding="UTF-8"?><svg id="logo_artwork" xmlns="http://www.w3.org/2000/svg" viewBox="0 0 401.04 188.82"><defs><style>.cls-1{fill:#fff;stroke-width:0px;}</style></defs><path class="cls-1" d="m372.37,77.45c-3.9,2-8.18,2.99-12.84,2.99-4.09,0-7.85-.66-11.27-2s-6.35-3.26-8.77-5.78c-1.86-1.93-3.4-4.15-4.64-6.67-10.76-.95-20.55-.82-29.9-.03.63,2.38,1.41,4.68,2.38,6.91,2.76,6.37,6.61,11.86,11.55,16.47,4.94,4.61,10.74,8.18,17.4,10.7,6.65,2.52,13.93,3.78,21.82,3.78,9.22,0,17.47-1.62,24.75-4.85,7.27-3.23,13.34-7.94,18.19-14.12l-17.97-16.26c-3.23,3.9-6.8,6.85-10.7,8.84Z"/><path class="cls-1" d="m333.82,40.15c1.37-3.48,3.26-6.48,5.67-8.98,2.42-2.52,5.35-4.44,8.77-5.78,3.42-1.33,7.18-2,11.27-2,4.66,0,8.94,1,12.84,3,3.9,2,7.46,4.9,10.7,8.7l17.97-16.26c-4.85-6.18-10.91-10.86-18.19-14.05-7.27-3.18-15.53-4.78-24.75-4.78-7.89,0-15.17,1.26-21.82,3.78-6.66,2.52-12.46,6.09-17.4,10.7-4.95,4.61-8.8,10.11-11.55,16.47-1.28,2.96-2.25,6.06-2.94,9.29,9.2-.72,18.89-.86,29.43-.09Z"/><path class="cls-1" d="m191.33,55.9L214.43,2h-27.96l-21.8,51.2c8.38,1.37,17.19,2.36,26.65,2.71Z"/><path class="cls-1" d="m131.24,72.38l12.59,29.46h27.81l8.94-20.86c-18.47-1.49-34.63-5.01-49.34-8.6Z"/><path class="cls-1" d="m129.07,45.39c7.46,1.86,15.01,3.75,22.86,5.41L131.56,2h-30.38l17.43,40.81c3.48.84,6.96,1.71,10.46,2.59Z"/><path class="cls-1" d="m68.46,2v33.84c-11.83.38-24.46,2.25-38.37,6.34V2H1.85v99.85h28.24v-32.83c14.12-4.89,26.62-7.09,38.37-7.53v40.35h28.24V2h-28.24Z"/><path class="cls-1" d="m277.54,101.84h29.38L262.7,2h-27.81l-44.08,99.85h28.81l9.03-22.49c13.77-1.68,25.98-4.01,37.34-6.29l11.55,28.77Zm-37.85-49.99l8.89-22.16,7.68,19.13c-5.39,1.06-10.87,2.09-16.57,3.03Z"/><path class="cls-1" d="m125.73,168.87c1.84,9.18,8.69,13.95,19.83,13.95,10.28,0,16.89-4.53,16.89-11.75,0-5.87-3.67-8.93-12.36-10.65l-12.36-2.2c-11.14-2.08-16.64-7.46-16.64-16.03,0-10.65,8.69-17.38,22.52-17.38,13.09,0,21.17,5.38,23.99,16.03l-6.73,1.47c-2.08-7.34-8.44-11.5-17.62-11.5-8.69,0-14.44,4.28-14.44,10.89,0,4.9,3.43,8.08,10.16,9.3l11.14,1.96c8.81,1.59,12.48,2.94,15.54,6,3.06,2.81,4.53,6.36,4.53,11.01,0,11.75-9.55,18.85-25.21,18.85-8.08,0-13.95-1.71-18.72-5.51-3.92-3.18-5.87-6.49-7.59-12.85l7.1-1.59Z"/><path class="cls-1" d="m43.69,186.98c-.61-4.65-.73-5.38-.86-10.28-5.51,8.69-11.5,11.99-21.54,11.99C8.32,188.7,0,181.48,0,170.22,0,157.24,11.26,149.66,30.23,149.66c2.81,0,3.67,0,12.6.49v-3.18c0-11.75-4.41-16.03-16.52-16.03-5.63,0-10.77,1.47-13.71,4.04-2.08,1.71-3.18,3.79-3.79,7.59l-7.22-1.47c1.22-6,3.3-9.18,7.95-12.12,4.16-2.69,9.91-4.04,16.89-4.04,9.3,0,16.15,2.45,19.82,7.34,2.81,3.55,3.79,7.59,3.79,15.54v27.66c0,5.14.24,7.95,1.1,11.5h-7.47Zm-.86-30.72c-8.2-.49-9.91-.61-13.34-.61-13.83,0-21.78,5.38-21.78,14.69,0,7.34,5.63,12.36,13.71,12.36,12.6,0,21.42-9.91,21.42-24.11v-2.33Z"/><path class="cls-1" d="m102.08,186.98v-38.3c0-12.24-3.92-17.74-12.61-17.74-11.01,0-18.97,9.55-18.97,22.88v33.16h-7.22v-60.33h7.22v11.38c4.53-8.93,10.89-13.09,19.7-13.09,6.98,0,12.73,2.94,15.91,8.32,2.2,3.55,3.18,8.44,3.18,15.54v38.18h-7.22Z"/><path class="cls-1" d="m230.56,186.98h-5.26l-14.32-46.01-13.22,46.01h-5.63l-17.87-60.33h7.34l13.83,47.48,13.46-47.48h4.65l14.44,47.48,13.09-47.48h6.73l-17.26,60.33Z"/><path class="cls-1" d="m259.72,157c0,15.79,7.83,25.7,20.44,25.7,8.44,0,14.93-4.77,17.62-13.22l6.73,1.71c-3.18,10.77-12.73,17.5-24.6,17.5-16.89,0-27.9-12.48-27.9-31.33s11.38-32.43,28.27-32.43c9.55,0,17.26,4.65,21.66,13.09,2.69,5.26,3.55,9.55,3.67,18.97h-45.89Zm38.06-5.75c-1.1-13.34-7.22-20.31-17.75-20.31-6.12,0-11.75,2.81-15.42,7.71-2.57,3.43-3.67,6.36-4.65,12.6h37.81Z"/><path class="cls-1" d="m347.17,131.3c-1.96-.24-2.94-.37-4.28-.37-5.38,0-9.79,2.45-12.97,7.22-2.81,4.41-4.65,10.4-4.65,15.91v32.92h-7.22v-60.33h6.49v13.95c3.79-11.14,9.18-15.66,18.36-15.66,1.71,0,2.57.12,4.28.49v5.87Z"/><path class="cls-1" d="m355.53,168.87c1.84,9.18,8.69,13.95,19.83,13.95,10.28,0,16.89-4.53,16.89-11.75,0-5.87-3.67-8.93-12.36-10.65l-12.36-2.2c-11.14-2.08-16.64-7.46-16.64-16.03,0-10.65,8.69-17.38,22.52-17.38,13.09,0,21.17,5.38,23.99,16.03l-6.73,1.47c-2.08-7.34-8.44-11.5-17.62-11.5-8.69,0-14.44,4.28-14.44,10.89,0,4.9,3.43,8.08,10.16,9.3l11.14,1.96c8.81,1.59,12.48,2.94,15.54,6,3.06,2.81,4.53,6.36,4.53,11.01,0,11.75-9.55,18.85-25.21,18.85-8.08,0-13.95-1.71-18.72-5.51-3.92-3.18-5.87-6.49-7.59-12.85l7.1-1.59Z"/></svg>