<?xml version="1.0" encoding="UTF-8"?><svg id="Layer_1" xmlns="http://www.w3.org/2000/svg" width="220" height="75" viewBox="0 0 220 75"><g><path d="m20.521,20.0885h12.6285l3.0376-15.7266h9.8887l-7.9825,41.1023h-9.8882l3.336-17.1552h-12.6285l-3.336,17.1552H5.6879L13.6704,4.3619h9.8882l-3.0376,15.7266Z" fill="#fff"/><path d="m60.0714,4.3619l2.859,24.8405,12.5692-24.8405h11.1394l-22.0409,41.1023h-8.8754l-6.0763-41.1023h10.4251Z" fill="#fff"/><path d="m75.0802,45.4641L97.3589,4.3619h9.531l6.3143,41.1023h-10.1866l-.8336-7.0292h-12.6884l-3.5146,7.0292h-10.9009Zm18.5856-15.2496h7.5649l-1.4292-12.1515-6.1357,12.1515Z" fill="#fff"/><path d="m140.9613,17.0497c.1187-2.6211-1.1919-5.063-4.7065-5.063-4.1102,0-6.9099,2.9783-8.2205,9.7096l-1.2506,6.4335c-1.2512,6.4335.2385,9.7096,4.4081,9.7096,3.5146,0,5.4801-1.787,6.7313-5.063h9.4118c-2.6804,9.1139-8.2205,13.2835-17.6921,13.2835-8.8754,0-15.0111-6.195-12.7478-17.93l1.2512-6.4335c2.4425-12.6285,9.6503-17.93,19.4791-17.93,8.399,0,12.9857,5.2422,12.7478,13.2835h-9.4118Z" fill="#fff"/><path d="m172.0533,45.4641l-3.8124-15.5474h-5.1224l-3.0382,15.5474h-9.8887l7.9825-41.1023h15.4875c8.2804,0,13.3434,4.4081,13.3434,11.3185,0,6.1357-3.1568,10.3646-8.9947,12.6285l4.8845,17.1552h-10.8416Zm-2.9183-23.7679c4.5866,0,7.8034-.655,7.8034-5.4202,0-3.0388-2.5019-3.6937-6.0763-3.6937h-4.4081l-1.7276,9.1139h4.4086Z" fill="#fff"/></g><g><path d="m61.5414,70.9011l12.4749-23.0164h5.337l3.5361,23.0164h-5.7041l-.4671-3.9369h-7.1048l-1.9684,3.9369h-6.1037Zm10.407-8.5392h4.2359l-.8004-6.8046-3.4355,6.8046Z" fill="#fff"/><path d="m107.1727,47.8847l-4.4697,23.0164h-4.4034l-6.0374-12.9764-2.5019,12.9764h-5.2032l4.4697-23.0164h4.3359l6.0711,13.1427,2.535-13.1427h5.2038Z" fill="#fff"/><path d="m121.9157,54.2554c-.6003-1.5333-1.634-2.1011-3.7025-2.1011-2.1011,0-3.0684,1.0342-3.0684,2.3349,0,1.1343,1.1006,1.901,3.5687,2.6351,3.9695,1.2006,5.7041,3.1353,5.7041,6.2718,0,4.7024-3.3692,7.8377-9.5735,7.8377-4.2027,0-6.7046-1.2006-8.3054-3.8019l4.5366-2.8689c.8673,1.4345,2.1348,2.0685,4.2027,2.0685,2.435,0,3.4023-1.1006,3.4023-2.3686,0-1.1006-.9342-1.7683-3.7694-2.7351-3.3354-1.1343-5.4371-3.1353-5.4371-6.3381,0-4.0695,2.6688-7.6388,9.5735-7.6388,3.6693,0,6.2375,1.3681,7.4049,3.9031l-4.5366,2.8014Z" fill="#fff"/><path d="m134.4575,70.9011h-5.2032l-.6672-23.0164h5.8704l-.1664,13.743,6.7377-13.743h4.8368l1.6008,13.8431,5.0706-13.8431h6.1374l-9.6066,23.0164h-5.237l-1.7678-14.6109-7.6056,14.6109Z" fill="#fff"/><path d="m175.3859,47.8847l-.901,4.6035h-9.0063l-.8004,4.2033h8.0058l-.901,4.6023h-8.0052l-.9674,5.0037h9.0063l-.901,4.6035h-14.5429l4.4697-23.0164h14.5434Z" fill="#fff"/><path d="m185.9931,70.9011l-2.1348-8.7068h-2.8689l-1.7009,8.7068h-5.5371l4.4697-23.0164h8.6724c4.6367,0,7.4718,2.4687,7.4718,6.3381,0,3.4355-1.7678,5.8041-5.0369,7.071l2.7351,9.6072h-6.0705Zm-1.6346-13.3091c2.5682,0,4.3697-.3676,4.3697-3.0353,0-1.702-1.4007-2.0685-3.4023-2.0685h-2.4687l-.9674,5.1038h2.4687Z" fill="#fff"/><path d="m209.7755,54.2554c-.6003-1.5333-1.634-2.1011-3.7025-2.1011-2.1011,0-3.0684,1.0342-3.0684,2.3349,0,1.1343,1.1006,1.901,3.5687,2.6351,3.9695,1.2006,5.7041,3.1353,5.7041,6.2718,0,4.7024-3.3692,7.8377-9.5735,7.8377-4.2027,0-6.7046-1.2006-8.3054-3.8019l4.5366-2.8689c.8673,1.4345,2.1348,2.0685,4.2027,2.0685,2.435,0,3.4023-1.1006,3.4023-2.3686,0-1.1006-.9342-1.7683-3.7694-2.7351-3.3354-1.1343-5.4371-3.1353-5.4371-6.3381,0-4.0695,2.6688-7.6388,9.5735-7.6388,3.6693,0,6.2375,1.3681,7.4049,3.9031l-4.5366,2.8014Z" fill="#fff"/></g></svg>