<?xml version="1.0" encoding="UTF-8"?><svg id="Layer_1" xmlns="http://www.w3.org/2000/svg" width="220" height="75" xmlns:xlink="http://www.w3.org/1999/xlink" viewBox="0 0 220 75"><defs><filter id="drop-shadow-1" filterUnits="userSpaceOnUse"><feOffset dx="-.9148" dy="1.5926"/><feGaussianBlur result="blur" stdDeviation=".9148"/><feFlood flood-color="#231f20" flood-opacity=".55"/><feComposite in2="blur" operator="in"/><feComposite in="SourceGraphic"/></filter><filter id="drop-shadow-2" filterUnits="userSpaceOnUse"><feOffset dx="-3.9815" dy="1.5926"/><feGaussianBlur result="blur-2" stdDeviation="1.5926"/><feFlood flood-color="#231f20" flood-opacity=".55"/><feComposite in2="blur-2" operator="in"/><feComposite in="SourceGraphic"/></filter><filter id="drop-shadow-3" filterUnits="userSpaceOnUse"><feOffset dx="-.9148" dy="1.5926"/><feGaussianBlur result="blur-3" stdDeviation=".9148"/><feFlood flood-color="#231f20" flood-opacity=".55"/><feComposite in2="blur-3" operator="in"/><feComposite in="SourceGraphic"/></filter><filter id="drop-shadow-4" filterUnits="userSpaceOnUse"><feOffset dx="-3.9815" dy="1.5926"/><feGaussianBlur result="blur-4" stdDeviation="1.5926"/><feFlood flood-color="#231f20" flood-opacity=".55"/><feComposite in2="blur-4" operator="in"/><feComposite in="SourceGraphic"/></filter></defs><g filter="url(#drop-shadow-1)"><path d="m28.2989,20.238h11.7239l2.82-14.6h9.1804l-7.4107,38.1579h-9.1798l3.097-15.9263h-11.7239l-3.097,15.9263h-9.1804L21.9391,5.638h9.1798l-2.82,14.6Z" fill="#fff"/><path d="m65.0161,5.638l2.6542,23.0611,11.6688-23.0611h10.3414l-20.4619,38.1579h-8.2396l-5.6411-38.1579h9.6783Z" fill="#fff"/><path d="m78.9497,43.7959L99.6325,5.638h8.8482l5.8619,38.1579h-9.4569l-.7739-6.5256h-11.7795l-3.2628,6.5256h-10.12Zm17.2542-14.1572h7.023l-1.3268-11.281-5.6961,11.281Z" fill="#fff"/><path d="m140.1114,17.4169c.1102-2.4333-1.1065-4.7003-4.3693-4.7003-3.8158,0-6.4149,2.7649-7.6316,9.014l-1.161,5.9726c-1.1616,5.9726.2214,9.014,4.0923,9.014,3.2628,0,5.0875-1.6589,6.2491-4.7003h8.7375c-2.4884,8.4611-7.6316,12.3319-16.4247,12.3319-8.2396,0-13.9358-5.7512-11.8346-16.6456l1.1616-5.9726c2.2675-11.7239,8.959-16.6456,18.0837-16.6456,7.7974,0,12.0554,4.8667,11.8346,12.3319h-8.7375Z" fill="#fff"/><path d="m168.9761,43.7959l-3.5393-14.4337h-4.7554l-2.8205,14.4337h-9.1804l7.4107-38.1579h14.3781c7.6872,0,12.3875,4.0923,12.3875,10.5077,0,5.6961-2.9307,9.6221-8.3503,11.7239l4.5346,15.9263h-10.0649Zm-2.7093-22.0653c4.2581,0,7.2444-.6081,7.2444-5.0319,0-2.8211-2.3226-3.4291-5.6411-3.4291h-4.0923l-1.6039,8.4611h4.0928Z" fill="#fff"/></g><g filter="url(#drop-shadow-2)"><path d="m29.2876,19.5861h11.7239l2.82-14.6h9.1804l-7.4107,38.1579h-9.1798l3.097-15.9263h-11.7239l-3.097,15.9263h-9.1804L22.9278,4.9861h9.1798l-2.82,14.6Z"/><path d="m66.0047,4.9861l2.6542,23.0611,11.6688-23.0611h10.3414l-20.4619,38.1579h-8.2396l-5.6411-38.1579h9.6783Z"/><path d="m79.9384,43.144L100.6212,4.9861h8.8482l5.8619,38.1579h-9.4569l-.7739-6.5256h-11.7795l-3.2628,6.5256h-10.12Zm17.2542-14.1572h7.023l-1.3268-11.281-5.6961,11.281Z"/><path d="m141.1001,16.765c.1102-2.4333-1.1065-4.7003-4.3693-4.7003-3.8158,0-6.4149,2.7649-7.6316,9.014l-1.161,5.9726c-1.1616,5.9726.2214,9.014,4.0923,9.014,3.2628,0,5.0875-1.6589,6.2491-4.7003h8.7375c-2.4884,8.4611-7.6316,12.3319-16.4247,12.3319-8.2396,0-13.9358-5.7512-11.8346-16.6456l1.1616-5.9726c2.2675-11.7239,8.959-16.6456,18.0837-16.6456,7.7974,0,12.0554,4.8667,11.8346,12.3319h-8.7375Z"/><path d="m169.9648,43.144l-3.5393-14.4337h-4.7554l-2.8205,14.4337h-9.1804l7.4107-38.1579h14.3781c7.6872,0,12.3875,4.0923,12.3875,10.5077,0,5.6961-2.9307,9.6221-8.3503,11.7239l4.5346,15.9263h-10.0649Zm-2.7093-22.0653c4.2581,0,7.2444-.6081,7.2444-5.0319,0-2.8211-2.3226-3.4291-5.6411-3.4291h-4.0923l-1.6039,8.4611h4.0928Z"/></g><g filter="url(#drop-shadow-3)"><path d="m66.5242,67.2659l11.5813-21.3676h4.9547l3.2828,21.3676h-5.2954l-.4336-3.6549h-6.5958l-1.8274,3.6549h-5.6664Zm9.6615-7.9275h3.9324l-.7431-6.3172-3.1894,6.3172Z" fill="#fff"/><path d="m108.8867,45.8984l-4.1495,21.3676h-4.088l-5.6049-12.0468-2.3226,12.0468h-4.8305l4.1495-21.3676h4.0253l5.6362,12.2012,2.3534-12.2012h4.831Z" fill="#fff"/><path d="m122.5735,51.8127c-.5573-1.4235-1.5169-1.9506-3.4372-1.9506-1.9506,0-2.8486.9602-2.8486,2.1676,0,1.053,1.0217,1.7648,3.313,2.4463,3.6851,1.1146,5.2954,2.9107,5.2954,5.8225,0,4.3655-3.1278,7.2762-8.8877,7.2762-3.9017,0-6.2243-1.1146-7.7104-3.5296l4.2116-2.6634c.8052,1.3317,1.9819,1.9203,3.9017,1.9203,2.2605,0,3.1586-1.0217,3.1586-2.199,0-1.0217-.8673-1.6417-3.4993-2.5392-3.0965-1.053-5.0476-2.9107-5.0476-5.8841,0-3.778,2.4776-7.0916,8.8877-7.0916,3.4065,0,5.7906,1.2701,6.8745,3.6235l-4.2116,2.6007Z" fill="#fff"/><path d="m134.2169,67.2659h-4.8305l-.6194-21.3676h5.4499l-.1544,12.7585,6.2551-12.7585h4.4903l1.4861,12.8514,4.7074-12.8514h5.6978l-8.9184,21.3676h-4.8618l-1.6411-13.5643-7.0608,13.5643Z" fill="#fff"/><path d="m172.2133,45.8984l-.8365,4.2737h-8.3611l-.7431,3.9022h7.4323l-.8365,4.2726h-7.4318l-.8981,4.6453h8.3611l-.8365,4.2737h-13.5011l4.1495-21.3676h13.5016Z" fill="#fff"/><path d="m182.0606,67.2659l-1.9819-8.083h-2.6634l-1.579,8.083h-5.1405l4.1495-21.3676h8.0512c4.3045,0,6.9366,2.2918,6.9366,5.8841,0,3.1894-1.6411,5.3883-4.676,6.5645l2.5392,8.919h-5.6357Zm-1.5175-12.3557c2.3842,0,4.0566-.3413,4.0566-2.8178,0-1.5801-1.3004-1.9203-3.1586-1.9203h-2.2918l-.8981,4.7381h2.2918Z" fill="#fff"/><path d="m204.1394,51.8127c-.5573-1.4235-1.5169-1.9506-3.4372-1.9506-1.9506,0-2.8486.9602-2.8486,2.1676,0,1.053,1.0217,1.7648,3.313,2.4463,3.6851,1.1146,5.2954,2.9107,5.2954,5.8225,0,4.3655-3.1278,7.2762-8.8877,7.2762-3.9017,0-6.2243-1.1146-7.7104-3.5296l4.2116-2.6634c.8052,1.3317,1.9819,1.9203,3.9017,1.9203,2.2605,0,3.1586-1.0217,3.1586-2.199,0-1.0217-.8673-1.6417-3.4993-2.5392-3.0965-1.053-5.0476-2.9107-5.0476-5.8841,0-3.778,2.4776-7.0916,8.8877-7.0916,3.4065,0,5.7906,1.2701,6.8745,3.6235l-4.2116,2.6007Z" fill="#fff"/></g><g filter="url(#drop-shadow-4)"><path d="m67.3695,66.7587l11.5813-21.3676h4.9547l3.2828,21.3676h-5.2954l-.4336-3.6549h-6.5958l-1.8274,3.6549h-5.6664Zm9.6615-7.9275h3.9324l-.7431-6.3172-3.1894,6.3172Z" fill="#37b34a"/><path d="m109.732,45.3912l-4.1495,21.3676h-4.088l-5.6049-12.0468-2.3226,12.0468h-4.8305l4.1495-21.3676h4.0253l5.6362,12.2012,2.3534-12.2012h4.831Z" fill="#37b34a"/><path d="m123.4188,51.3055c-.5573-1.4235-1.5169-1.9506-3.4372-1.9506-1.9506,0-2.8486.9602-2.8486,2.1676,0,1.053,1.0217,1.7648,3.313,2.4463,3.6851,1.1146,5.2954,2.9107,5.2954,5.8225,0,4.3655-3.1278,7.2762-8.8877,7.2762-3.9017,0-6.2243-1.1146-7.7104-3.5296l4.2116-2.6634c.8052,1.3317,1.9819,1.9203,3.9017,1.9203,2.2605,0,3.1586-1.0217,3.1586-2.199,0-1.0217-.8673-1.6417-3.4993-2.5392-3.0965-1.053-5.0476-2.9107-5.0476-5.8841,0-3.778,2.4776-7.0916,8.8877-7.0916,3.4065,0,5.7906,1.2701,6.8745,3.6235l-4.2116,2.6007Z" fill="#37b34a"/><path d="m135.0622,66.7587h-4.8305l-.6194-21.3676h5.4499l-.1544,12.7585,6.2551-12.7585h4.4903l1.4861,12.8514,4.7074-12.8514h5.6978l-8.9184,21.3676h-4.8618l-1.6411-13.5643-7.0608,13.5643Z" fill="#37b34a"/><path d="m173.0586,45.3912l-.8365,4.2737h-8.3611l-.7431,3.9022h7.4323l-.8365,4.2726h-7.4318l-.8981,4.6453h8.3611l-.8365,4.2737h-13.5011l4.1495-21.3676h13.5016Z" fill="#37b34a"/><path d="m182.9059,66.7587l-1.9819-8.083h-2.6634l-1.579,8.083h-5.1405l4.1495-21.3676h8.0512c4.3045,0,6.9366,2.2918,6.9366,5.8841,0,3.1894-1.6411,5.3883-4.676,6.5645l2.5392,8.919h-5.6357Zm-1.5175-12.3557c2.3842,0,4.0566-.3413,4.0566-2.8178,0-1.5801-1.3004-1.9203-3.1586-1.9203h-2.2918l-.8981,4.7381h2.2918Z" fill="#37b34a"/><path d="m204.9847,51.3055c-.5573-1.4235-1.5169-1.9506-3.4372-1.9506-1.9506,0-2.8486.9602-2.8486,2.1676,0,1.053,1.0217,1.7648,3.313,2.4463,3.6851,1.1146,5.2954,2.9107,5.2954,5.8225,0,4.3655-3.1278,7.2762-8.8877,7.2762-3.9017,0-6.2243-1.1146-7.7104-3.5296l4.2116-2.6634c.8052,1.3317,1.9819,1.9203,3.9017,1.9203,2.2605,0,3.1586-1.0217,3.1586-2.199,0-1.0217-.8673-1.6417-3.4993-2.5392-3.0965-1.053-5.0476-2.9107-5.0476-5.8841,0-3.778,2.4776-7.0916,8.8877-7.0916,3.4065,0,5.7906,1.2701,6.8745,3.6235l-4.2116,2.6007Z" fill="#37b34a"/></g></svg>