<svg width="20" height="22" viewBox="0 0 20 22" fill="none" xmlns="http://www.w3.org/2000/svg">
<path d="M18.1442 1H1.85616C0.970177 1 0.249512 1.72066 0.249512 2.60665V18.8947C0.249512 19.7807 0.970177 20.5014 1.85616 20.5014H2.99278C3.06658 20.7881 3.32696 21 3.63655 21H5.59356C5.90336 21 6.16353 20.7881 6.23732 20.5014H13.7626C13.8364 20.7881 14.0968 21 14.4064 21H16.3634C16.6732 21 16.9334 20.7881 17.0072 20.5014H18.1438C19.0298 20.5014 19.7505 19.7807 19.7505 18.8947V2.60665C19.7505 1.72066 19.0298 1 18.1438 1H18.1442ZM1.46835 2.60665C1.46835 2.3928 1.64231 2.21884 1.85616 2.21884H18.1442C18.3581 2.21884 18.5321 2.3928 18.5321 2.60665V18.8947C18.5321 19.1086 18.3581 19.2825 18.1442 19.2825H1.85616C1.64231 19.2825 1.46835 19.1086 1.46835 18.8947V2.60665Z" fill="#26A851" stroke="#26A851" stroke-width="0.2"/>
<path d="M3.01946 4.71178C3.53869 4.71178 3.96129 4.28918 3.96129 3.76995C3.96129 3.25073 3.53869 2.82812 3.01946 2.82812C2.50024 2.82812 2.07764 3.25073 2.07764 3.76995C2.07764 4.28918 2.50024 4.71178 3.01946 4.71178Z" fill="#26A851" stroke="#26A851" stroke-width="0.2"/>
<path d="M16.9809 4.71178C17.5001 4.71178 17.9227 4.28918 17.9227 3.76995C17.9227 3.25073 17.5001 2.82812 16.9809 2.82812C16.4617 2.82812 16.0391 3.25073 16.0391 3.76995C16.0391 4.28918 16.4617 4.71178 16.9809 4.71178Z" fill="#26A851" stroke="#26A851" stroke-width="0.2"/>
<path d="M3.01946 18.6732C3.53869 18.6732 3.96129 18.2506 3.96129 17.7314C3.96129 17.2122 3.53869 16.7896 3.01946 16.7896C2.50024 16.7896 2.07764 17.2122 2.07764 17.7314C2.07764 18.2506 2.50024 18.6732 3.01946 18.6732Z" fill="#26A851" stroke="#26A851" stroke-width="0.2"/>
<path d="M16.9809 16.7896C16.4617 16.7896 16.0391 17.2122 16.0391 17.7314C16.0391 18.2506 16.4617 18.6732 16.9809 18.6732C17.5001 18.6732 17.9227 18.2506 17.9227 17.7314C17.9227 17.2122 17.5001 16.7896 16.9809 16.7896Z" fill="#26A851" stroke="#26A851" stroke-width="0.2"/>
<path d="M9.99999 18.1743C14.0935 18.1743 17.4238 14.844 17.4238 10.7505C17.4238 6.65697 14.0935 3.32666 9.99999 3.32666C5.90648 3.32666 2.57617 6.65697 2.57617 10.7505C2.57617 14.844 5.90648 18.1743 9.99999 18.1743ZM9.27977 10.7505C9.27977 10.3534 9.60288 10.0303 9.99999 10.0303C10.3971 10.0303 10.7202 10.3534 10.7202 10.7505C10.7202 11.1476 10.3971 11.4707 9.99999 11.4707C9.60288 11.4707 9.27977 11.1476 9.27977 10.7505ZM9.96498 14.5721C10.3721 13.8499 10.5303 13.1199 10.5895 12.6007C10.8405 12.5224 11.0752 12.3886 11.2787 12.2075C11.575 12.4292 12.0241 12.8362 12.3384 13.4452C12.7818 14.3046 12.8357 15.3094 12.4984 16.4325C11.705 16.7795 10.8705 16.9555 10.0166 16.9555C9.22393 16.9555 8.47069 16.8163 7.77218 16.5413C8.73506 16.1083 9.47168 15.4472 9.96498 14.5721ZM13.8998 15.5675C14.0007 14.5216 13.7948 13.5574 13.2864 12.6955C12.8374 11.9347 12.244 11.4282 11.8781 11.1638C11.9076 11.0226 11.9224 10.8841 11.9224 10.7505C11.9224 10.6317 11.9105 10.5085 11.8874 10.3884C12.2267 10.2421 12.8058 10.056 13.4972 10.0903C14.4605 10.1382 15.3511 10.594 16.1449 11.4454C16.053 12.3359 15.758 13.2101 15.2897 13.9784C14.9254 14.5761 14.4494 15.1197 13.8998 15.5678V15.5675ZM13.3174 8.8737C12.4421 8.88145 11.7152 9.13697 11.3068 9.31868C11.1076 9.13453 10.8769 8.99647 10.6287 8.91292C10.7397 7.94383 11.1681 7.15957 11.9036 6.58029C12.5068 6.10516 13.188 5.86605 13.6773 5.74705C14.3836 6.27957 14.9813 6.96212 15.409 7.72577C15.7722 8.37397 16.0115 9.06561 16.1232 9.78694C15.2756 9.18062 14.3475 8.87347 13.3596 8.87347C13.3454 8.87347 13.3312 8.87347 13.317 8.87347L13.3174 8.8737ZM10.035 6.92888C9.62792 7.65109 9.46969 8.38106 9.41052 8.90029C9.15944 8.97852 8.92476 9.11237 8.72132 9.29342C8.42504 9.07181 7.97584 8.66472 7.66182 8.05575C7.21839 7.19636 7.16454 6.19159 7.50182 5.06849C8.29562 4.72145 9.13573 4.5455 10.0002 4.5455C10.784 4.5455 11.532 4.68467 12.2285 4.95946C11.2654 5.39248 10.5287 6.05353 10.0352 6.92888H10.035ZM6.10016 5.93342C5.99933 6.9794 6.2052 7.94361 6.71357 8.80544C7.16254 9.56622 7.75601 10.0728 8.12188 10.3372C8.0924 10.4784 8.07756 10.6169 8.07756 10.7505C8.07756 10.8693 8.08952 10.9925 8.11257 11.1126C7.77307 11.2588 7.19423 11.4452 6.50282 11.4109C5.5395 11.363 4.64886 10.9072 3.85506 10.0557C3.94703 9.16533 4.24199 8.29109 4.71024 7.52278C5.07457 6.92511 5.55058 6.38151 6.10016 5.93342ZM9.3713 12.5714C9.26027 13.5405 8.83168 14.325 8.09595 14.9043C7.49252 15.3796 6.81063 15.6187 6.32132 15.7375C5.61639 15.2134 5.01894 14.5353 4.59058 13.7728C4.22781 13.1268 3.98847 12.4367 3.87678 11.716C4.71689 12.3184 5.63988 12.6231 6.62603 12.6231C7.48432 12.6231 8.20875 12.3851 8.69362 12.1659C8.89285 12.3498 9.12332 12.4879 9.3713 12.5712V12.5714Z" fill="#26A851"/>
</svg>
