<svg width="14" height="16" viewBox="0 0 14 16" fill="none" xmlns="http://www.w3.org/2000/svg">
<g id="icon-verified" clip-path="url(#clip0_453_3380)">
<path id="Vector" d="M13.2994 2.30376C9.54871 1.93314 7.45225 0.197947 7.4195 0.164254C7.15744 -0.0547512 6.78073 -0.0547512 6.51867 0.164254C6.5023 0.1811 4.40584 1.93314 0.638765 2.30376C0.278436 2.33746 0 2.65754 0 3.02817C0 12.8329 6.4204 15.8147 6.69884 15.9326C6.79711 15.9663 6.879 16 6.97727 16C7.07555 16 7.17382 15.9832 7.25571 15.9326C7.53415 15.8147 13.9545 12.8329 13.9545 3.02817C13.9382 2.65754 13.6597 2.33746 13.2994 2.30376ZM6.9609 11.4346C4.97909 11.4346 3.39037 9.78363 3.39037 7.76204C3.39037 5.74046 4.97909 4.0895 6.9609 4.0895C8.9427 4.0895 10.5314 5.74046 10.5314 7.76204C10.5314 9.78363 8.9427 11.4346 6.9609 11.4346Z" fill="#004990"/>
<path id="Vector_2" d="M7.87806 6.51541L6.51864 7.91368L5.97815 7.35774C5.73247 7.10504 5.323 7.10504 5.07733 7.35774C4.83165 7.61044 4.83165 8.0316 5.07733 8.2843L6.06004 9.29509C6.19107 9.42987 6.35485 9.48041 6.51864 9.48041C6.68243 9.48041 6.84621 9.41302 6.97724 9.29509L8.79526 7.42513C9.04094 7.17243 9.04094 6.75127 8.79526 6.49857C8.53321 6.26272 8.12374 6.26272 7.87806 6.51541Z" fill="#004990"/>
</g>
<defs>
<clipPath id="clip0_453_3380">
<rect width="14" height="16" fill="white"/>
</clipPath>
</defs>
</svg>
