<svg width="20" height="20" viewBox="0 0 20 20" fill="none" xmlns="http://www.w3.org/2000/svg">
<g id="icon-website" clip-path="url(#clip0_453_3372)">
<path id="Vector" d="M10 20C12.6522 20 15.1958 18.9464 17.071 17.071C18.9464 15.1956 20 12.652 20 10C20 7.348 18.9464 4.8042 17.071 2.929C15.1956 1.0536 12.652 0 10 0C7.348 0 4.8042 1.0536 2.929 2.929C1.0536 4.8044 0 7.348 0 10C0 11.7554 0.462 13.4798 1.3398 15C2.2174 16.5202 3.4798 17.7826 5 18.6602C6.5202 19.538 8.2446 20 10 20ZM18 10C17.9998 11.1992 17.726 12.3824 17.2 13.46C16.4106 13.2278 15.6096 13.0376 14.8 12.89C14.9348 11.9326 15.0016 10.9668 15 10C15.002 9.171 14.9518 8.3428 14.85 7.52C15.6898 7.3318 16.5178 7.0946 17.33 6.81C17.772 7.8154 18.0002 8.9018 18 10ZM13 10C13.0044 10.8666 12.9442 11.7324 12.82 12.59C10.9454 12.39 9.0546 12.39 7.18 12.59C7.0608 11.7318 7.0006 10.8664 7 10C7.0024 9.2918 7.0424 8.584 7.12 7.88C8.075 8.0064 9.0368 8.0732 10 8.08C10.9632 8.0732 11.925 8.0064 12.88 7.88C12.9576 8.584 12.9976 9.2918 13 10ZM7.59 14.55C9.1932 14.4 10.8068 14.4 12.41 14.55C11.78 16.73 10.78 18 10 18C9.22 18 8.22 16.73 7.59 14.55ZM12.53 5.91C10.8492 6.11 9.1508 6.11 7.47 5.91C8.08 3.45 9.17 2 10 2C10.83 2 11.92 3.45 12.53 5.91ZM5.2 12.91C4.3904 13.0576 3.5894 13.2478 2.8 13.48C2.2962 12.4476 2.0236 11.3178 2.001 10.1694C1.9786 9.0208 2.2068 7.8812 2.67 6.83C3.4818 7.116 4.31 7.353 5.15 7.54C5.049 8.3562 4.9988 9.1776 5 10C4.9984 10.9668 5.0652 11.9326 5.2 12.89V12.91ZM4 15.21C4.53 15.07 5.08 14.95 5.64 14.85C5.8404 15.6448 6.1254 16.416 6.49 17.15C5.5354 16.6814 4.6878 16.021 4 15.21ZM13.61 17.15C13.9746 16.416 14.2596 15.6448 14.46 14.85C15.02 14.95 15.57 15.07 16.1 15.21C15.3978 16.0266 14.5326 16.6874 13.56 17.15H13.61ZM16.28 5.06C15.7 5.25 15.11 5.41 14.51 5.55C14.283 4.6142 13.9474 3.708 13.51 2.85C14.587 3.3704 15.5336 4.1256 16.28 5.06ZM6.44 2.85C6.0198 3.7102 5.701 4.6162 5.49 5.55C4.89 5.41 4.3 5.25 3.72 5.06C4.4522 4.1314 5.3812 3.3766 6.44 2.85Z" fill="#26A851"/>
</g>
<defs>
<clipPath id="clip0_453_3372">
<rect width="20" height="20" fill="white"/>
</clipPath>
</defs>
</svg>
