<svg width="20" height="20" viewBox="0 0 20 20" fill="none" xmlns="http://www.w3.org/2000/svg">
<g id="icon-call" clip-path="url(#clip0_453_3375)">
<path id="Vector" d="M11.0858 2.0358C12.9153 2.0358 14.6186 2.75171 15.9224 4.03613C17.2052 5.32056 17.9202 7.06822 17.9202 8.85799C17.9202 9.38439 18.3408 9.80552 18.8665 9.80552C19.3922 9.80552 19.8128 9.38439 19.8128 8.85799C19.8338 6.56287 18.9086 4.30986 17.2683 2.66748C15.607 1.06722 13.42 0.140747 11.0858 0.140747C10.56 0.140747 10.1395 0.56187 10.1395 1.08827C10.1395 1.61468 10.56 2.0358 11.0858 2.0358Z" fill="#26A851"/>
<path id="Vector_2" d="M11.0858 5.6785C11.948 5.6785 12.7471 6.0154 13.3569 6.62603C13.9667 7.23665 14.3032 8.03679 14.3032 8.90009C14.3032 9.42649 14.7238 9.84762 15.2495 9.84762C15.7752 9.84762 16.1958 9.42649 16.1958 8.90009C16.1958 7.53144 15.6701 6.24702 14.7028 5.27843C13.7354 4.30985 12.4527 3.78345 11.0858 3.78345C10.56 3.78345 10.1395 4.20457 10.1395 4.73097C10.1395 5.25738 10.56 5.6785 11.0858 5.6785Z" fill="#26A851"/>
<path id="Vector_3" d="M19.224 14.522L15.1444 12.4164C14.5766 12.1216 13.8616 12.269 13.4621 12.7743L11.969 14.6905C10.518 13.9114 9.40348 13.1534 8.12071 11.8689C6.75383 10.5003 6.01782 9.36325 5.26077 7.95249L7.15338 6.47856C7.65808 6.07849 7.82631 5.36259 7.51087 4.79407L5.429 0.730235C5.05048 0.0141504 4.14624 -0.217467 3.49434 0.224712L0.886744 1.95149C0.297933 2.35138 -0.0385312 3.04623 0.00352677 3.76232C0.0455847 4.49928 0.15073 5.42575 0.318962 6.07849C1.076 8.98424 2.8845 11.9953 5.429 14.5431C7.97351 17.1119 10.9807 18.9227 13.8827 19.6808C14.5346 19.8492 15.4598 19.9334 16.2169 19.9966C16.9529 20.0387 17.6468 19.6808 18.0464 19.0701L19.7287 16.4381C20.1703 15.7643 19.9181 14.88 19.224 14.522Z" fill="#26A851"/>
</g>
<defs>
<clipPath id="clip0_453_3375">
<rect width="19.9742" height="20" fill="white"/>
</clipPath>
</defs>
</svg>
