<svg width="123" height="58" viewBox="0 0 123 58" fill="none" xmlns="http://www.w3.org/2000/svg">
<g clip-path="url(#clip0_955_99)">
<path d="M114.207 23.7903C113.011 24.4047 111.698 24.7088 110.269 24.7088C109.015 24.7088 107.862 24.506 106.813 24.0944C105.764 23.6828 104.865 23.093 104.123 22.319C103.552 21.7261 103.08 21.0442 102.7 20.2701C99.3996 19.9783 96.397 20.0183 93.5293 20.2609C93.7225 20.992 93.9617 21.6985 94.2592 22.3835C95.1057 24.3402 96.2866 26.0265 97.8017 27.4426C99.3168 28.8586 101.096 29.9552 103.138 30.7293C105.178 31.5034 107.411 31.8904 109.831 31.8904C112.658 31.8904 115.189 31.3928 117.421 30.4006C119.651 29.4085 121.513 27.9617 123 26.0634L117.489 21.0688C116.498 22.2668 115.403 23.1729 114.207 23.7842V23.7903Z" fill="#26A851"/>
<path d="M102.384 12.3329C102.804 11.264 103.384 10.3424 104.123 9.57452C104.865 8.80045 105.764 8.21068 106.812 7.79907C107.861 7.39053 109.015 7.18473 110.269 7.18473C111.698 7.18473 113.011 7.4919 114.207 8.10624C115.403 8.72058 116.495 9.61138 117.489 10.7786L123 5.78403C121.513 3.88571 119.654 2.44815 117.421 1.46828C115.192 0.491473 112.658 0 109.83 0C107.411 0 105.178 0.387035 103.138 1.16111C101.096 1.93518 99.3166 3.03178 97.8015 4.44783C96.2834 5.86389 95.1026 7.55333 94.2591 9.50694C93.8665 10.4162 93.569 11.3684 93.3574 12.3606C96.1791 12.1394 99.151 12.0964 102.384 12.3329Z" fill="#26A851"/>
<path d="M58.6816 17.1709L65.7664 0.61438H57.191L50.5049 16.3415C53.0751 16.7624 55.7771 17.0665 58.6785 17.174H58.6816V17.1709Z" fill="#26A851"/>
<path d="M40.252 22.233L44.1133 31.2823H52.6427L55.3847 24.8747C49.7199 24.417 44.7635 23.3358 40.252 22.233Z" fill="#26A851"/>
<path d="M39.5862 13.9425C41.8742 14.5139 44.1898 15.0944 46.5974 15.6043L40.3499 0.61438H31.0322L36.3781 13.15C37.4454 13.408 38.5127 13.6753 39.5862 13.9456V13.9425Z" fill="#26A851"/>
<path d="M20.9968 0.61438V11.009C17.3686 11.1258 13.4949 11.7002 9.22866 12.9565V0.61438H0.567383V31.2854H9.22866V21.201C13.5593 19.6989 17.3931 19.0231 20.9968 18.888V31.2823H29.6581V0.61438H20.9968Z" fill="#26A851"/>
<path d="M85.1218 31.2823H94.1327L80.5703 0.61438H72.0409L58.5215 31.2854H67.3576L70.1271 24.3771C74.3504 23.8611 78.0952 23.1454 81.5794 22.445L85.1218 31.2823ZM73.5131 15.9268L76.2397 9.11994L78.5952 14.9961C76.942 15.3217 75.2613 15.6381 73.5131 15.9268Z" fill="#26A851"/>
<path d="M38.5619 51.872C39.1263 54.6918 41.2272 56.157 44.6439 56.157C47.7968 56.157 49.8241 54.7655 49.8241 52.5477C49.8241 50.7446 48.6985 49.8047 46.0332 49.2764L42.2424 48.6006C38.8257 47.9617 37.1388 46.3091 37.1388 43.6766C37.1388 40.4053 39.8041 38.338 44.0458 38.338C48.0605 38.338 50.5387 39.9906 51.4036 43.262L49.3395 43.7135C48.7015 41.4589 46.7509 40.181 43.9354 40.181C41.2701 40.181 39.5066 41.4957 39.5066 43.5261C39.5066 45.0313 40.5586 46.0081 42.6227 46.3828L46.0393 46.9849C48.7414 47.4733 49.867 47.888 50.8055 48.8279C51.744 49.691 52.1949 50.7815 52.1949 52.2098C52.1949 55.8191 49.2659 58 44.4629 58C41.9847 58 40.1844 57.4748 38.7214 56.3075C37.5192 55.3307 36.9211 54.314 36.3936 52.3604L38.5711 51.872H38.5619Z" fill="#6F7D8E"/>
<path d="M13.3998 57.4348C13.2127 56.0065 13.1759 55.7822 13.1361 54.2771C11.4461 56.9464 9.60899 57.9601 6.5297 57.9601C2.55177 57.9601 0 55.7454 0 52.2866C0 48.2995 3.45347 45.9712 9.27162 45.9712C10.1335 45.9712 10.3972 45.9712 13.1361 46.1217V45.1449C13.1361 41.5356 11.7835 40.221 8.06934 40.221C6.34261 40.221 4.76616 40.6725 3.86445 41.4619C3.22651 41.9872 2.88914 42.6261 2.70205 43.7934L0.487657 43.3418C0.861834 41.4988 1.49978 40.522 2.92594 39.6189C4.20183 38.7926 5.96537 38.3779 8.10615 38.3779C10.9585 38.3779 13.0594 39.1305 14.185 40.6326C15.0468 41.723 15.3474 42.964 15.3474 45.406V53.9023C15.3474 55.4812 15.421 56.3444 15.6848 57.4348H13.3937H13.3998ZM13.1361 47.9985C10.6211 47.848 10.0966 47.8111 9.04466 47.8111C4.80296 47.8111 2.36468 49.4637 2.36468 52.3235C2.36468 54.5781 4.09141 56.1201 6.56957 56.1201C10.434 56.1201 13.1391 53.0761 13.1391 48.7142V47.9985H13.1361Z" fill="#6F7D8E"/>
<path d="M31.3083 57.4348V45.6702C31.3083 41.9104 30.106 40.221 27.4407 40.221C24.0639 40.221 21.6226 43.1544 21.6226 47.249V57.4348H19.4082V38.9032H21.6226V42.3988C23.012 39.6558 24.9626 38.3779 27.6646 38.3779C29.8054 38.3779 31.569 39.281 32.5443 40.9336C33.219 42.024 33.5196 43.5261 33.5196 45.707V57.4348H31.3052H31.3083Z" fill="#6F7D8E"/>
<path d="M70.7136 57.4348H69.1004L64.7084 43.3019L60.6538 57.4348H58.9271L53.4463 38.9032H55.6975L59.9392 53.4877L64.0674 38.9032H65.4936L69.9223 53.4877L73.9371 38.9032H76.0012L70.7075 57.4348H70.7136Z" fill="#6F7D8E"/>
<path d="M79.6567 48.2258C79.6567 53.0761 82.0582 56.1201 85.9257 56.1201C88.5142 56.1201 90.5047 54.6549 91.3298 52.0593L93.3939 52.5846C92.4186 55.8928 89.4896 57.9601 85.849 57.9601C80.6688 57.9601 77.292 54.1266 77.292 48.3364C77.292 42.5463 80.7823 38.3749 85.9625 38.3749C88.8915 38.3749 91.2562 39.8032 92.6057 42.3957C93.4307 44.0115 93.6944 45.3292 93.7312 48.2228H79.6567V48.2258ZM91.3298 46.4596C90.9924 42.362 89.1154 40.221 85.8858 40.221C84.0088 40.221 82.282 41.0841 81.1564 42.5893C80.3682 43.6429 80.0308 44.5429 79.7303 46.4596H91.3298Z" fill="#6F7D8E"/>
<path d="M106.478 40.3315C105.877 40.2578 105.576 40.2179 105.165 40.2179C103.515 40.2179 102.163 40.9704 101.187 42.4357C100.326 43.7903 99.7613 45.6302 99.7613 47.3227V57.4348H97.5469V38.9032H99.5374V43.1882C100.7 39.7663 102.353 38.3779 105.168 38.3779C105.693 38.3779 105.957 38.4148 106.481 38.5284V40.3315H106.478Z" fill="#6F7D8E"/>
<path d="M109.042 51.872C109.607 54.6918 111.708 56.157 115.124 56.157C118.277 56.157 120.305 54.7655 120.305 52.5477C120.305 50.7446 119.179 49.8047 116.514 49.2764L112.723 48.6006C109.306 47.9617 107.619 46.3091 107.619 43.6766C107.619 40.4053 110.285 38.338 114.526 38.338C118.541 38.338 121.019 39.9906 121.884 43.262L119.82 43.7135C119.182 41.4589 117.231 40.181 114.416 40.181C111.751 40.181 109.987 41.4957 109.987 43.5261C109.987 45.0313 111.039 46.0081 113.103 46.3828L116.52 46.9849C119.222 47.4733 120.347 47.888 121.286 48.8279C122.224 49.691 122.675 50.7815 122.675 52.2098C122.675 55.8191 119.746 58 114.943 58C112.465 58 110.665 57.4748 109.202 56.3075C108 55.3307 107.402 54.314 106.874 52.3604L109.052 51.872H109.042Z" fill="#6F7D8E"/>
</g>
<defs>
<clipPath id="clip0_955_99">
<rect width="123" height="58" fill="white"/>
</clipPath>
</defs>
</svg>
