<svg width="40" height="36" viewBox="0 0 40 36" fill="none" xmlns="http://www.w3.org/2000/svg">
<g id="regulations-icon" clip-path="url(#clip0_79_900)">
<path id="Vector" d="M27.509 9.48779H12.4914C11.9104 9.48779 11.4391 9.95872 11.4391 10.5401C11.4391 11.1214 11.9104 11.5924 12.4914 11.5924H27.509C28.09 11.5924 28.5613 11.1214 28.5613 10.5401C28.5613 9.95872 28.09 9.48779 27.509 9.48779Z" fill="#016273"/>
<path id="Vector_2" d="M27.509 15.167H12.4914C11.9104 15.167 11.4391 15.6383 11.4391 16.2193C11.4391 16.8003 11.9104 17.2716 12.4914 17.2716H27.509C28.09 17.2716 28.5613 16.8003 28.5613 16.2193C28.5613 15.6383 28.09 15.167 27.509 15.167Z" fill="#016273"/>
<path id="Vector_3" d="M27.509 20.8467H12.4914C11.9104 20.8467 11.4391 21.318 11.4391 21.899C11.4391 22.48 11.9104 22.9513 12.4914 22.9513H27.509C28.09 22.9513 28.5613 22.48 28.5613 21.899C28.5613 21.318 28.09 20.8467 27.509 20.8467Z" fill="#016273"/>
<path id="Vector_4" d="M32.6069 0H14.2312C10.1547 0 6.83812 3.31689 6.83812 7.39311V26.1986H1.05229C0.471279 26.1986 0 26.6698 0 27.2508V27.9852C0 32.0604 3.31548 35.3758 7.39064 35.3758L25.7726 35.3765C29.8471 35.3765 33.1619 32.06 33.1619 27.9834V15.0226H38.9481C39.5291 15.0226 40.0004 14.5516 40.0004 13.9703V7.39311C40 3.31689 36.6835 0 32.6069 0ZM7.39064 33.2716C4.58266 33.2716 2.27867 31.0707 2.11372 28.3031H18.3862C18.4689 30.2466 19.3056 31.9981 20.6107 33.272H7.39064V33.2716ZM37.8958 12.9183H33.1615V9.80155C33.1615 8.89803 33.8966 8.16298 34.8001 8.16298C35.3811 8.16298 35.8524 7.69205 35.8524 7.11069C35.8524 6.52933 35.3811 6.0584 34.8001 6.0584C32.7363 6.0584 31.0569 7.73742 31.0569 9.80155V27.9838C31.0573 30.8878 28.7062 33.2526 25.8092 33.2723C25.7966 33.272 25.7832 33.2716 25.7705 33.2716C22.8556 33.2716 20.4841 30.9001 20.4841 27.9855V27.2512C20.4841 26.6698 20.0128 26.1989 19.4318 26.1989H8.94235V7.39346C8.94235 4.47715 11.3149 2.10458 14.2312 2.10458H32.6065C35.5229 2.10458 37.8954 4.47715 37.8954 7.39346V12.9183H37.8958Z" fill="#016273"/>
</g>
<defs>
<clipPath id="clip0_79_900">
<rect width="40" height="35.3765" fill="white"/>
</clipPath>
</defs>
</svg>
