<svg width="25" height="25" viewBox="0 0 25 25" fill="none" xmlns="http://www.w3.org/2000/svg">
<g id="Layer_1" clip-path="url(#clip0_454_1212)">
<path id="Vector" d="M24.4361 21.8096L19.4018 16.7703L19.0422 17.1302L17.7999 15.8868C20.7421 11.9928 20.4479 6.42997 16.9173 2.89594C13.0598 -0.965314 6.78326 -0.965314 2.8931 2.89594C-0.964367 6.7572 -0.964367 13.0399 2.8931 16.9339C6.42367 20.4679 12.0137 20.7952 15.8712 17.8174L17.1134 19.0609L16.7538 19.4208L21.7882 24.4601C22.5074 25.18 23.6842 25.18 24.4361 24.4601C25.188 23.7075 25.188 22.5295 24.4361 21.8096ZM15.0212 15.0033C12.2099 17.8174 7.6659 17.8174 4.85453 15.0033C2.04315 12.1891 2.04315 7.64071 4.85453 4.82657C7.6659 2.01243 12.2099 2.01243 15.0212 4.82657C17.8326 7.64071 17.8326 12.1891 15.0212 15.0033ZM12.0791 12.8763C11.7522 13.269 11.3272 13.5308 10.8369 13.6944C10.608 13.7598 10.51 13.858 10.5427 14.087V14.7415C10.5427 14.9378 10.4446 15.036 10.2484 15.036H9.52926C9.33311 15.036 9.23504 14.9051 9.23504 14.7088V14.2179C9.23504 13.978 9.11518 13.8362 8.87545 13.7925C8.45047 13.7271 7.99281 13.6289 7.60052 13.4326C7.27362 13.269 7.24093 13.2035 7.339 12.8763C7.40438 12.6145 7.46976 12.3855 7.53514 12.1237C7.63321 11.8292 7.69859 11.7965 7.96012 11.9274C8.41778 12.1564 8.87545 12.2873 9.36581 12.3527C9.69271 12.3855 9.98692 12.3527 10.2811 12.2219C10.8369 11.9928 10.9349 11.3384 10.4446 10.9457C10.2811 10.8148 10.1177 10.7166 9.92154 10.6512C9.43119 10.4221 8.94083 10.2912 8.48316 9.99673C7.73128 9.53861 7.27362 8.94961 7.339 8.03338C7.40438 7.01898 7.99281 6.36453 8.90814 6.0373C9.16966 5.95004 9.30042 5.77552 9.30042 5.51374V5.08835C9.30042 4.79385 9.36581 4.7284 9.66002 4.7284H9.95423C10.3901 4.7284 10.608 4.94655 10.608 5.38285C10.608 5.68826 10.7606 5.86278 11.0657 5.90641C11.4253 5.97186 11.7522 6.07003 12.0791 6.20092C12.2426 6.26636 12.3079 6.39725 12.2753 6.59359C12.2099 6.88809 12.1118 7.14987 12.0137 7.44437C11.9157 7.70615 11.8503 7.73887 11.5888 7.60798C11.0984 7.37893 10.5427 7.24804 9.98692 7.28076C9.85616 7.28076 9.69271 7.31348 9.56195 7.37893C9.07159 7.57526 9.00621 8.13155 9.3985 8.45877C9.59464 8.62238 9.85616 8.75327 10.085 8.85144C10.51 9.01505 10.9349 9.21139 11.3272 9.40772C12.6351 10.1606 12.9947 11.764 12.0791 12.8763Z" fill="white"/>
</g>
<defs>
<clipPath id="clip0_454_1212">
<rect width="25" height="25" fill="white"/>
</clipPath>
</defs>
</svg>
