<svg width="21" height="20" viewBox="0 0 21 20" fill="none" xmlns="http://www.w3.org/2000/svg">
<path d="M14.4102 5.91195H7.08916C6.75623 5.91195 6.48617 6.1818 6.48617 6.51494C6.48617 6.84808 6.75623 7.11793 7.08916 7.11793H14.4102C14.7431 7.11793 15.0132 6.84808 15.0132 6.51494C15.0132 6.1818 14.7431 5.91195 14.4102 5.91195Z" fill="white" stroke="white" stroke-width="0.18"/>
<path d="M14.4102 8.68063H7.08916C6.75621 8.68063 6.48617 8.95067 6.48617 9.28362C6.48617 9.61656 6.75621 9.8866 7.08916 9.8866H14.4102C14.7431 9.8866 15.0132 9.61656 15.0132 9.28362C15.0132 8.95067 14.7431 8.68063 14.4102 8.68063Z" fill="white" stroke="white" stroke-width="0.18"/>
<path d="M14.4102 11.4498H7.08916C6.75621 11.4498 6.48617 11.7198 6.48617 12.0528C6.48617 12.3857 6.75621 12.6558 7.08916 12.6558H14.4102C14.7431 12.6558 15.0132 12.3857 15.0132 12.0528C15.0132 11.7198 14.7431 11.4498 14.4102 11.4498Z" fill="white" stroke="white" stroke-width="0.18"/>
<path d="M4.69291 17.507V17.5068H4.60291C3.31438 17.5068 2.25122 16.5215 2.12779 15.2647H9.87795C9.93461 16.1257 10.2876 16.9069 10.8354 17.507H4.69291ZM5.44936 14.0589V4.98135C5.44936 3.60937 6.56568 2.49305 7.93766 2.49305H16.8955C18.2675 2.49305 19.3839 3.60937 19.3839 4.98135V7.5847H17.2561V6.15529C17.2561 5.76453 17.5741 5.44649 17.9649 5.44649C18.2978 5.44649 18.5679 5.17664 18.5679 4.84351C18.5679 4.51037 18.2978 4.24052 17.9649 4.24052C16.9091 4.24052 16.0501 5.09932 16.0501 6.15529V15.0191C16.0503 16.3848 14.9449 17.4971 13.5828 17.5072C13.577 17.507 13.57 17.5068 13.563 17.5068C12.1917 17.5068 11.0759 16.391 11.0759 15.0199V14.6619C11.0759 14.3288 10.8059 14.0589 10.4729 14.0589H5.44936ZM16.8957 1.28708H7.93766C5.90065 1.28708 4.24355 2.94434 4.24355 4.98118V14.0588H1.51299C1.18004 14.0588 0.91 14.3288 0.91 14.6617V15.0197C0.91 17.0561 2.56658 18.7126 4.60291 18.7126L13.564 18.713C15.6001 18.713 17.2563 17.0559 17.2563 15.0189V8.79051H19.987C20.3199 8.79051 20.59 8.52066 20.59 8.18752V4.98118C20.5898 2.94434 18.9327 1.28708 16.8957 1.28708Z" fill="white" stroke="white" stroke-width="0.18"/>
</svg>
